<svg width="154" height="48" viewBox="0 0 154 48" fill="none" xmlns="http://www.w3.org/2000/svg">
<path d="M23.9877 23.5134H10.7828L7.89559 30.6358H0L13.0475 0.757812H22.2909L35.3385 30.6288H26.8203L23.9877 23.5134ZM12.4728 18.6873H22.3183L17.6589 6.97262H17.1937L12.4728 18.6873Z" fill="#767676"/>
<path d="M49.6104 30.6289H41.7422V0.757812H57.5264C59.5928 0.757812 61.4469 0.977823 63.1027 1.41777C64.7515 1.85779 66.1473 2.49713 67.2967 3.32211C68.4394 4.1471 69.322 5.15771 69.9377 6.33328C70.5535 7.50885 70.8613 8.84944 70.8613 10.3413C70.8613 11.2969 70.7109 12.2044 70.4098 13.0843C70.1018 13.9575 69.664 14.7687 69.0825 15.5042C68.5008 16.2398 67.7825 16.8929 66.9341 17.4636C66.0858 18.0273 65.1209 18.4878 64.0468 18.8317L71.963 30.6289H63.0479L56.0418 19.8079H49.6104V30.6289ZM49.6104 15.0024H56.5138C58.5117 15.0024 60.058 14.6036 61.1526 13.7993C62.2473 13.0019 62.7947 11.8744 62.7947 10.4238C62.7947 9.72256 62.6442 9.08322 62.3501 8.51262C62.0558 7.94202 61.6315 7.45386 61.0843 7.05514C60.5369 6.65641 59.8664 6.34704 59.0796 6.13388C58.2859 5.92079 57.4102 5.81082 56.4386 5.81082H49.6173V15.0024H49.6104Z" fill="#767676"/>
<path d="M93.5705 0.746094C96.3619 0.746094 98.8588 1.07607 101.041 1.72918C103.231 2.38229 105.072 3.34477 106.577 4.60977C108.082 5.8747 109.225 7.42153 110.012 9.24337C110.805 11.072 111.195 13.1551 111.195 15.4856C111.195 17.9125 110.805 20.0712 110.025 21.9549C109.245 23.8386 108.103 25.4198 106.597 26.7054C105.092 27.9909 103.251 28.9672 101.062 29.634C98.8729 30.3008 96.3752 30.6377 93.5639 30.6377H78.7715V0.746094H93.5705ZM86.6462 25.2961H92.325C95.8146 25.2961 98.4964 24.471 100.371 22.8211C102.246 21.1711 103.183 18.7581 103.183 15.5888C103.183 14.0831 102.937 12.7426 102.438 11.5602C101.945 10.3777 101.233 9.38087 100.303 8.56965C99.3721 7.75843 98.2368 7.1397 96.8885 6.72029C95.5409 6.30095 94.0217 6.08786 92.3184 6.08786H86.6396V25.2961H86.6462Z" fill="#767676"/>
<path d="M135.053 0C137.831 0 140.328 0.364352 142.551 1.09997C144.775 1.82868 146.663 2.87367 148.231 4.22803C149.79 5.58231 150.994 7.22543 151.837 9.16408C152.677 11.1028 153.095 13.2821 153.095 15.6952C153.095 18.1219 152.677 20.3082 151.844 22.247C151.008 24.1855 149.811 25.8286 148.251 27.1829C146.69 28.5373 144.788 29.5754 142.558 30.311C140.328 31.0397 137.824 31.4109 135.047 31.4109C132.247 31.4109 129.736 31.0465 127.506 30.311C125.276 29.5823 123.381 28.5373 121.814 27.1829C120.254 25.8286 119.05 24.1855 118.208 22.247C117.366 20.3082 116.942 18.1219 116.942 15.6952C116.942 13.2821 117.366 11.1028 118.215 9.16408C119.064 7.22543 120.274 5.57547 121.848 4.21426C123.421 2.85306 125.324 1.81491 127.554 1.08621C129.798 0.364352 132.295 0 135.053 0ZM135.053 5.48611C133.527 5.48611 132.145 5.72673 130.913 6.20105C129.682 6.67544 128.628 7.35601 127.753 8.24289C126.877 9.12286 126.199 10.2022 125.72 11.4603C125.242 12.7252 125.002 14.1346 125.002 15.6952C125.002 17.2557 125.235 18.665 125.707 19.9163C126.172 21.1744 126.842 22.2469 127.711 23.1336C128.58 24.0205 129.634 24.7081 130.872 25.1961C132.111 25.6774 133.506 25.918 135.053 25.918C136.579 25.918 137.961 25.6774 139.192 25.1961C140.424 24.7149 141.477 24.0274 142.354 23.1336C143.229 22.2469 143.899 21.1744 144.371 19.9163C144.844 18.6582 145.076 17.2557 145.076 15.6952C145.076 14.1346 144.844 12.7252 144.371 11.4603C143.906 10.1953 143.229 9.12286 142.354 8.24289C141.477 7.35601 140.424 6.68229 139.192 6.20105C137.961 5.71981 136.585 5.48611 135.053 5.48611Z" fill="#767676"/>
<path d="M41.6675 45.7662C42.5295 46.0892 43.7953 46.3643 45.1294 46.3643C47.1 46.3643 48.2562 45.7249 48.2562 44.8036C48.2562 43.9443 47.4557 43.4562 45.4374 42.9818C42.9949 42.4525 41.4896 41.6756 41.4896 40.3832C41.4896 38.9532 43.419 37.8945 46.3269 37.8945C47.8594 37.8945 48.9678 38.1145 49.6314 38.3414L49.0978 39.3038C48.6121 39.1389 47.6131 38.8708 46.2583 38.8708C44.2195 38.8708 43.4395 39.6201 43.4395 40.2457C43.4395 41.105 44.3496 41.5244 46.4089 42.0125C48.9404 42.6106 50.2199 43.36 50.2199 44.7074C50.2199 46.1237 48.5093 47.3474 44.9858 47.3474C43.5421 47.3474 41.9686 47.0861 41.1748 46.763L41.6675 45.7662Z" fill="#767676"/>
<path d="M55.7071 39.0525H51.1641V38.0488H62.2274V39.0525H57.657V47.2129H55.7071V39.0525Z" fill="#767676"/>
<path d="M65.8191 38.0556V43.4798C65.8191 45.5355 67.3038 46.4017 69.3017 46.4017C71.5184 46.4017 72.9416 45.501 72.9416 43.4798V38.0556H74.8917V43.3974C74.8917 46.2091 72.4762 47.3641 69.24 47.3641C66.1817 47.3641 63.876 46.2917 63.876 43.4454V38.0488H65.8191V38.0556Z" fill="#767676"/>
<path d="M78.2373 38.1818C79.414 38.0718 80.8097 37.9893 82.3429 37.9893C85.1136 37.9893 87.0913 38.3811 88.3975 39.1305C89.7251 39.8798 90.5054 40.9387 90.5054 42.4236C90.5054 43.9154 89.7525 45.1459 88.3568 45.9846C86.9611 46.8441 84.655 47.3047 81.7475 47.3047C80.3719 47.3047 79.2225 47.2634 78.2447 47.1947V38.1818H78.2373ZM80.167 46.2872C80.6529 46.3423 81.3644 46.3559 82.1166 46.3559C86.2422 46.3559 88.4796 44.9398 88.4796 42.4647C88.5003 40.3062 86.5092 38.9312 82.425 38.9312C81.4258 38.9312 80.6729 38.9861 80.1603 39.0549V46.2872H80.167Z" fill="#767676"/>
<path d="M94.9385 38.0488V47.2129H93.0088V38.0488H94.9385Z" fill="#767676"/>
<path d="M111.078 42.5404C111.078 45.6959 107.951 47.3666 104.141 47.3666C100.192 47.3666 97.4219 45.4898 97.4219 42.7192C97.4219 39.8111 100.371 37.9068 104.36 37.9068C108.444 37.8999 111.078 39.818 111.078 42.5404ZM99.481 42.6848C99.481 44.6442 101.212 46.3973 104.25 46.3973C107.308 46.3973 109.039 44.6716 109.039 42.5886C109.039 40.7668 107.486 38.8625 104.271 38.8625C101.082 38.8693 99.481 40.6773 99.481 42.6848Z" fill="#767676"/>
</svg>
