<svg width="262" height="35" viewBox="0 0 262 35" fill="none" xmlns="http://www.w3.org/2000/svg">
<g clip-path="url(#clip0_459_71)">
<path d="M5.65355 0H5.3193H0.974033H0.639782H0.472656V31.3602H22.0318V34.8632H26.21L27.3799 26.5227H24.0374V0H23.8702H23.536H19.1907H18.8565H18.6893V26.5227H5.82067V0H5.65355Z" fill="#767676"/>
<path d="M199.686 14.5132C201.692 13.1787 202.862 10.8434 202.862 8.17445C202.862 3.00336 199.018 -0.166016 192.5 -0.166016H178.963V31.361H192.166C200.188 31.361 204.366 28.1916 204.366 22.1864C204.199 18.6834 202.695 15.8477 199.686 14.5132ZM184.311 17.5158H190.829C192.834 17.5158 194.84 17.5158 196.344 18.183C197.848 18.8503 198.684 20.0179 198.684 22.0196C198.684 23.5209 198.349 24.6886 197.514 25.3558C196.177 26.6903 194.004 26.6903 191.497 26.6903H184.311V17.5158ZM190.662 12.8451H184.311V5.00507H190.996C194.84 5.00507 197.347 5.33869 197.347 9.0085C197.347 12.5115 194.338 12.8451 190.662 12.8451Z" fill="#767676"/>
<path d="M208.878 0V31.3602H230.938V26.0223H214.727V17.8486H229.769V12.5107H214.727V5.3379H230.938V0H208.878Z" fill="#767676"/>
<path d="M235.952 0V5.3379H245.645V31.3602H251.495V5.3379H261.188V0H235.952Z" fill="#767676"/>
<path d="M161.247 31.527C152.724 31.527 147.376 25.5218 147.376 15.8469C147.376 11.6767 148.546 7.84004 150.718 5.00428C153.225 1.66809 156.902 0 161.415 0C164.256 0 167.264 0.834047 169.437 2.33533C172.111 4.17023 173.615 6.83918 173.949 9.84175L174.116 10.8426H168.601L168.434 10.0086C167.765 6.83918 165.258 4.83747 161.582 4.83747C155.398 4.83747 153.225 10.3422 153.225 15.3465C153.225 21.852 156.401 25.8555 161.415 25.8555C165.593 25.8555 168.1 23.3533 168.601 18.6826L168.768 17.8486H174.45L174.283 19.0163C173.615 26.8563 168.768 31.527 161.247 31.527Z" fill="#767676"/>
<path d="M31.3906 0V31.3602H53.4512V26.0223H37.24V17.8486H52.2813V12.5107H37.24V5.3379H53.4512V0H31.3906Z" fill="#767676"/>
<path d="M89.8848 0V5.3379H99.578V31.3602H105.427V5.3379H115.121V0H89.8848Z" fill="#767676"/>
<path d="M132.001 13.5116H125.817V5.3379H133.003C135.845 5.3379 138.519 5.83833 138.519 9.34132C138.519 13.3448 135.677 13.5116 132.001 13.5116ZM140.524 16.5141C143.031 15.0128 144.535 12.1771 144.535 9.17452C144.535 3.16938 140.858 0 133.839 0H120.135V31.3602H125.984V18.6826H132.502C133.171 18.6826 133.839 18.6827 134.508 18.5158C137.683 18.349 139.688 17.1814 140.524 16.5141Z" fill="#767676"/>
<path d="M84.8707 0V31.3602H79.0213V26.0223V17.8486H64.3142V26.0223V31.3602H58.4648V0H64.3142V12.5107H79.0213V0H84.8707Z" fill="#767676"/>
</g>
<defs>
<clipPath id="clip0_459_71">
<rect width="260.716" height="34.8632" fill="white" transform="translate(0.305664)"/>
</clipPath>
</defs>
</svg>
