<svg width="172" height="32" viewBox="0 0 172 32" fill="none" xmlns="http://www.w3.org/2000/svg">
<path d="M9.29179 7.25385V12.6302H27.0743V19.116H9.29179V31.0635H0.71582V0.768054H28.1673V7.25385H9.29179Z" fill="#767676"/>
<path d="M47.0199 31.8316C43.2644 31.8316 40.0554 31.1631 37.393 29.8261C34.7585 28.4891 32.7546 26.6259 31.3814 24.2364C30.0361 21.8469 29.3635 19.0733 29.3635 15.9158C29.3635 12.7582 30.0361 9.98471 31.3814 7.5952C32.7546 5.2057 34.7585 3.34246 37.393 2.00547C40.0554 0.668492 43.2644 0 47.0199 0C50.7754 0 53.9704 0.668492 56.6048 2.00547C59.2673 3.34246 61.2712 5.2057 62.6164 7.5952C63.9897 9.98471 64.6763 12.7582 64.6763 15.9158C64.6763 19.0733 63.9897 21.8469 62.6164 24.2364C61.2712 26.6259 59.2673 28.4891 56.6048 29.8261C53.9704 31.1631 50.7754 31.8316 47.0199 31.8316ZM47.0199 25.3458C49.8505 25.3458 51.9945 24.5493 53.4519 22.9563C54.9373 21.3633 55.68 19.2867 55.68 16.7265V15.1051C55.68 12.5449 54.9373 10.4683 53.4519 8.87529C51.9945 7.28229 49.8505 6.48579 47.0199 6.48579C44.1893 6.48579 42.0313 7.28229 40.5459 8.87529C39.0885 10.4683 38.3599 12.5449 38.3599 15.1051V16.7265C38.3599 19.2867 39.0885 21.3633 40.5459 22.9563C42.0313 24.5493 44.1893 25.3458 47.0199 25.3458Z" fill="#767676"/>
<path d="M83.0385 20.9935H75.4295V31.0635H66.8535V0.768054H87.4526C89.6387 0.768054 91.5444 1.20897 93.17 2.09082C94.7955 2.97266 96.0426 4.18163 96.9114 5.71774C97.7802 7.25385 98.2147 8.97486 98.2147 10.8808C98.2147 13.0996 97.6401 15.0055 96.4911 16.5985C95.342 18.1915 93.7165 19.3151 91.6145 19.9694L99.5179 31.0635H89.8068L83.0385 20.9935ZM75.4295 14.5077H85.3086C86.6259 14.5077 87.6628 14.2232 88.4195 13.6543C89.2043 13.0569 89.5966 12.2178 89.5966 11.1368V10.6247C89.5966 9.54378 89.2183 8.71884 88.4616 8.14991C87.7049 7.55253 86.6539 7.25385 85.3086 7.25385H75.4295V14.5077Z" fill="#767676"/>
<path d="M172 0.768054V31.0635H132.764V8.66195L124.902 31.0635H117.083L108.843 8.23525V31.0635H100.435V0.768054H113.678L121.077 21.5909L128.265 0.768054H172Z" fill="#767676"/>
</svg>
