<svg width="219" height="32" viewBox="0 0 219 32" fill="none" xmlns="http://www.w3.org/2000/svg">
<g clip-path="url(#clip0_459_82)">
<path fill-rule="evenodd" clip-rule="evenodd" d="M46.8527 0C49.9681 0 52.627 0.686368 54.7503 2.03921C56.8735 3.39205 58.5006 5.292 59.582 7.67937C60.6436 10.0568 61.1893 12.8122 61.1893 15.9058C61.1893 18.9995 60.6536 21.7648 59.582 24.1323C58.5006 26.5197 56.8735 28.4196 54.7503 29.7725C52.627 31.1253 49.9681 31.8117 46.8527 31.8117C43.7374 31.8117 41.0784 31.1253 38.9453 29.7725C36.8121 28.4196 35.185 26.5197 34.1035 24.1323C33.0419 21.7648 32.4963 18.9995 32.4963 15.9058C32.4963 12.8122 33.032 10.0468 34.1035 7.67937C35.185 5.292 36.8121 3.39205 38.9453 2.03921C41.0784 0.686368 43.7374 0 46.8527 0ZM52.9049 27.0568C54.5022 25.9825 55.7226 24.4805 56.5262 22.5805L56.5361 22.5905C57.3497 20.6706 57.7565 18.4225 57.7565 15.9158C57.7565 13.4091 57.3497 11.1609 56.5361 9.24111C55.7325 7.34116 54.5121 5.83911 52.9148 4.77474C51.2976 3.70042 49.1942 3.17321 46.7733 3.17321C44.3922 3.17321 42.388 3.70042 40.8204 4.75484C39.2231 5.81921 38.0126 7.33121 37.209 9.23116C36.3954 11.1609 35.9688 13.4091 35.939 15.9158C35.9093 18.4225 36.3161 20.6607 37.1296 22.5706C37.9432 24.4606 39.1635 25.9626 40.7807 27.0369C42.388 28.1013 44.4319 28.6484 46.8527 28.6484C49.2636 28.6584 51.3075 28.1312 52.9049 27.0568ZM20.0051 14.2442H3.92225V0.805309H0.231445V31.1548H3.92225V17.6761H20.0051V31.1548H23.7356V0.805309H20.0051V14.2442ZM182.292 18.6609C182.103 18.3326 181.934 18.0541 181.786 17.8253C183.304 17.2782 184.554 16.2934 185.526 14.8908C186.597 13.339 187.133 11.5087 187.133 9.44957C187.133 5.76905 185.605 3.15289 182.569 1.68068C181.28 1.10373 179.414 0.805309 177.043 0.805309H167.786V31.1548H171.477V18.7206H178.174L184.732 31.1548H188.998L182.301 18.6609H182.292ZM177.995 15.2987H171.467V4.23715H176.874C178.551 4.23715 179.781 4.40626 180.525 4.74447C181.409 5.15231 182.113 5.78894 182.609 6.61457C183.105 7.4601 183.363 8.43494 183.363 9.52915C183.363 11.26 182.867 12.6726 181.895 13.717C180.912 14.7714 179.642 15.2887 178.005 15.2887L177.995 15.2987ZM84.1378 26.2209L71.8351 0.805309H68.8884V31.1548H72.0931V8.73336L82.8579 31.1548H85.378L96.123 8.73336V31.115H99.3475V0.805309H96.3115L84.1378 26.2209ZM124.747 17.5865H113.654V27.7229H127.981V31.1548H109.964V0.805309H127.981V4.23715H113.654V14.1547H124.747V17.5865ZM144.897 0.805309L133.874 31.1548H137.784L141.127 21.7446H152.309L155.652 31.1548H159.561L148.548 0.805309H144.897ZM142.318 18.4022L145.929 8.24594C146.177 7.56952 146.445 6.6842 146.743 5.62978L147.517 8.24594L151.128 18.4122H142.328L142.318 18.4022ZM193.711 4.23715V0.805309H218.376V4.23715H207.869V31.1548H204.178V4.23715H193.711Z" fill="#767676"/>
</g>
<defs>
<clipPath id="clip0_459_82">
<rect width="218.274" height="31.8316" fill="white" transform="translate(0.231445)"/>
</clipPath>
</defs>
</svg>
