<svg width="13" height="16" viewBox="0 0 13 16" fill="none" xmlns="http://www.w3.org/2000/svg">
  <path d="M7.4772 3.1587L10.8491 6.5307C10.9279 6.6122 11.0221 6.6772 11.1262 6.722C11.2304 6.7667 11.3424 6.7903 11.4557 6.7913C11.5691 6.7922 11.6815 6.7706 11.7864 6.7277C11.8913 6.6848 11.9866 6.6214 12.0668 6.5413C12.1469 6.4611 12.2103 6.3658 12.2532 6.2609C12.2961 6.156 12.3177 6.0436 12.3168 5.9302C12.3158 5.8169 12.2922 5.7048 12.2475 5.6007C12.2027 5.4965 12.1377 5.4023 12.0562 5.3236L7.227 0.494499C7.067 0.334399 6.8499 0.244499 6.6235 0.244499C6.3971 0.244499 6.18 0.334399 6.02 0.494499L1.1908 5.3236C1.0353 5.4846 0.949303 5.7002 0.951203 5.9241C0.953203 6.1479 1.0429 6.362 1.2012 6.5203C1.3595 6.6786 1.5736 6.7683 1.7974 6.7703C2.0213 6.7722 2.2369 6.6862 2.3979 6.5307L5.7698 3.1587V14.4637C5.7698 14.6901 5.8598 14.9073 6.0199 15.0674C6.18 15.2274 6.3971 15.3174 6.6235 15.3174C6.8499 15.3174 7.067 15.2274 7.2271 15.0674C7.3872 14.9073 7.4772 14.6901 7.4772 14.4637V3.1587Z" fill="black"/>
</svg>
