<svg width="17" height="17" viewBox="0 0 17 17" fill="none" xmlns="http://www.w3.org/2000/svg">
  <path fillRule="evenodd" clipRule="evenodd" d="M5.49604 0.164999C4.89102 0.412513 4.18625 0.795933 3.67075 1.15808C3.07101 1.57937 2.02979 2.619 1.60699 3.21871C0.182319 5.23937 -0.328001 7.7858 0.208512 10.1971C0.993808 13.7268 3.9297 16.4212 7.5557 16.9399C8.18677 17.0302 9.5487 17.0165 10.1212 16.9141C12.9887 16.4013 15.2831 14.7225 16.5416 12.2164C16.788 11.7258 17.0245 11.1698 16.998 11.1433C16.9918 11.1372 16.8988 11.192 16.7914 11.2652C15.0944 12.4206 12.8631 12.8684 10.8298 12.4615C8.22 11.9392 5.99884 10.0925 5.02183 7.63262C4.0657 5.22517 4.34727 2.48817 5.77097 0.351708C5.90061 0.157093 5.98139 -0.00111646 5.95046 5.93537e-06C5.91953 0.00117714 5.71506 0.0754513 5.49604 0.164999Z" fill="black"/>
</svg>
