<svg width="76" height="14" viewBox="0 0 76 14" fill="none" xmlns="http://www.w3.org/2000/svg">
  <path d="M63.7076 13.1765C63.7076 13.6313 63.3372 14 62.8802 14C62.4233 14 62.0529 13.6313 62.0529 13.1765C62.0529 12.7216 62.4233 12.3529 62.8802 12.3529C63.3372 12.3529 63.7076 12.7216 63.7076 13.1765Z" fill="black"/>
  <path fillRule="evenodd" clipRule="evenodd" d="M76 0H0V14H0.945568C0.945568 7.37258 6.34322 2 13.0016 2C19.6599 2 25.0575 7.37258 25.0575 14H25.8849C25.8849 7.37258 31.2826 2 37.9409 2C44.5992 2 49.9969 7.37258 49.9969 14H50.8243C50.8243 7.37258 56.2219 2 62.8802 2C69.5386 2 74.9362 7.37258 74.9362 14H76V0Z" fill="black"/>
</svg>
